Coordinates
version=1
nRows=16
nColumns=42
inDegrees=yes

Units are S.I. units (second, meters, Newtons, ...)
If the header above contains a line with 'inDegrees', this indicates whether rotational values are in degrees (yes) or radians (no).

endheader
time	pelvis_tilt	pelvis_list	pelvis_rotation	pelvis_tx	pelvis_ty	pelvis_tz	hip_flexion_r	hip_adduction_r	hip_rotation_r	knee_angle_r	knee_adduction_r	knee_angle_r_beta	ankle_angle_r	subtalar_angle_r	mtp_angle_r	hip_flexion_l	hip_adduction_l	hip_rotation_l	knee_angle_l	knee_adduction_l	knee_angle_l_beta	ankle_angle_l	subtalar_angle_l	mtp_angle_l	lumbar_extension	lumbar_bending	lumbar_rotation	arm_flex_r	arm_add_r	arm_rot_r	elbow_flex_r	pro_sup_r	wrist_flex_r	wrist_dev_r	arm_flex_l	arm_add_l	arm_rot_l	elbow_flex_l	pro_sup_l	wrist_flex_l	wrist_dev_l
      4.25000000	     12.44794071	      1.19891709	      3.23334751	      0.20266676	      0.88446176	     -0.13872306	     -8.82671492	      1.70790998	    -17.84585273	     24.24151610	      0.20793095	      0.42309427	     23.97402887	     28.39769595	     -7.50121815	     16.10314351	     -1.99164659	     -7.01532143	     31.18780392	     -2.46928740	      0.54432986	     11.13370557	     16.66035105	     -7.50121815	    -29.92999871	      5.18702225	     -3.47170698	      6.25317618	    -13.99504418	     -0.72103154	     51.76499101	     90.00000001	      0.00000000	      0.00000000	     14.01101158	     -9.56695609	     26.40024819	     51.48702241	     90.00000001	      0.00000000	      0.00000000
      4.26000000	     12.46110389	      1.15007004	      3.26033812	      0.20555035	      0.88402571	     -0.13893619	     -9.01009497	      1.76914649	    -17.77092891	     24.35469075	      0.19896535	      0.42506954	     23.94646833	     28.30223140	     -7.50121276	     16.42201065	     -1.95872121	     -7.12684782	     31.05236528	     -2.34691398	      0.54196601	     11.13765345	     16.62221614	     -7.50121276	    -29.87893119	      5.26261401	     -3.52386393	      6.15127549	    -14.09195019	     -0.73443598	     51.73039025	     90.00000001	      0.00000000	      0.00000000	     14.02344515	     -9.59738163	     26.35534214	     51.51577798	     90.00000001	      0.00000000	      0.00000000
      4.27000000	     12.53591421	      1.05142015	      3.27283203	      0.20872451	      0.88376824	     -0.13917249	     -9.38467571	      1.86517719	    -17.84571214	     24.23323206	      0.24446887	      0.42294969	     24.18883633	     28.36423969	     -7.50121220	     16.49985567	     -1.93899930	     -7.17634416	     30.61226829	     -2.27216717	      0.53428487	     11.20675550	     16.74728363	     -7.50121220	    -29.83789706	      5.40652619	     -3.58455186	      6.10791998	    -14.16943858	     -0.68075157	     51.51518644	     90.00000001	      0.00000000	      0.00000000	     13.97148395	     -9.59524877	     26.35653458	     51.42117876	     90.00000001	      0.00000000	      0.00000000
      4.28000000	     12.67143765	      1.01549530	      3.26034211	      0.21174980	      0.88362561	     -0.13937868	     -9.79571534	      1.90823930	    -17.76548559	     24.16765076	      0.26812285	      0.42180508	     24.42483413	     28.39304811	     -7.50120635	     16.47573664	     -1.87546182	     -7.08434875	     30.19812958	     -2.07715465	      0.52705679	     11.22242941	     16.97522814	     -7.50120635	    -29.92307477	      5.46378070	     -3.66728373	      6.15175904	    -14.26058840	     -0.54194548	     51.16970600	     90.00000001	      0.00000000	      0.00000000	     13.99556451	     -9.62455490	     26.26857240	     51.34909912	     90.00000001	      0.00000000	      0.00000000
      4.29000000	     12.68061959	      0.97593425	      3.29478240	      0.21477042	      0.88319654	     -0.13968800	    -10.01074685	      1.94793970	    -17.73826674	     24.24401359	      0.27680529	      0.42313786	     24.42301238	     28.33038569	     -7.50120245	     16.71557114	     -1.82795939	     -7.20829435	     30.07519108	     -1.92569040	      0.52491111	     11.22571978	     16.94424101	     -7.50120245	    -29.87055449	      5.54573656	     -3.72063488	      6.07134020	    -14.35510510	     -0.54178873	     51.09298157	     90.00000001	      0.00000000	      0.00000000	     13.98265129	     -9.60682621	     26.24229644	     51.37210232	     90.00000001	      0.00000000	      0.00000000
      4.30000000	     12.83240982	      0.94244838	      3.27705248	      0.21794546	      0.88307026	     -0.13997125	    -10.47614474	      1.95838486	    -17.76216724	     24.14291584	      0.34625048	      0.42137337	     24.66773965	     28.39895553	     -7.50119544	     16.61246770	     -1.76939118	     -7.24036642	     29.66674824	     -1.74816194	      0.51778244	     11.21290567	     17.07231456	     -7.50119544	    -29.95492249	      5.60454168	     -3.81377161	      6.18909360	    -14.45273710	     -0.33452387	     50.56773187	     90.00000001	      0.00000000	      0.00000000	     13.93467423	     -9.60178587	     26.15172918	     51.31417203	     90.00000001	      0.00000000	      0.00000000
      4.31000000	     12.87803784	      0.90593032	      3.23320700	      0.22103373	      0.88274265	     -0.14028209	    -10.76171421	      1.95065695	    -17.74991578	     24.15754903	      0.39397881	      0.42162877	     24.77209151	     28.37030513	     -7.50118105	     16.68380859	     -1.71376231	     -7.40925376	     29.43518444	     -1.62455776	      0.51374088	     11.17336957	     17.01846286	     -7.50118105	    -29.95636125	      5.66185697	     -3.87022956	      6.25095228	    -14.57783709	     -0.16461022	     50.20977339	     90.00000001	      0.00000000	      0.00000000	     13.88930721	     -9.59470119	     26.03882623	     51.32276874	     90.00000001	      0.00000000	      0.00000000
      4.32000000	     12.85944796	      0.84585798	      3.22890111	      0.22403684	      0.88224170	     -0.14062879	    -10.94714177	      1.98590608	    -17.75889216	     24.21177020	      0.40716646	      0.42257511	     24.79592791	     28.33447188	     -7.50117776	     16.86435885	     -1.67364252	     -7.54269633	     29.33009021	     -1.50891905	      0.51190664	     11.17772902	     16.97068153	     -7.50117776	    -29.91631330	      5.75648137	     -3.90316850	      6.21854607	    -14.68022048	     -0.16794496	     50.12944671	     90.00000001	      0.00000000	      0.00000000	     13.89264461	     -9.57711700	     26.02523228	     51.33561255	     90.00000001	      0.00000000	      0.00000000
      4.33000000	     12.84851905	      0.74093198	      3.15909908	      0.22713696	      0.88177364	     -0.14095683	    -11.14427619	      2.02392170	    -17.80757057	     24.26098130	      0.45181443	      0.42343400	     24.93343592	     28.33905638	     -7.50117236	     16.95595445	     -1.70313443	     -7.77118755	     29.14360740	     -1.40953515	      0.50865191	     11.16933933	     16.87262279	     -7.50117236	    -29.86657939	      5.88138148	     -3.88341359	      6.26157531	    -14.81298634	     -0.12202673	     49.86892233	     90.00000001	      0.00000000	      0.00000000	     13.85960869	     -9.54379415	     26.01355773	     51.31947852	     90.00000001	      0.00000000	      0.00000000
      4.34000000	     12.80254049	      0.68379019	      3.11230111	      0.23005713	      0.88120512	     -0.14135614	    -11.27118878	      2.05307422	    -17.75710423	     24.34649431	      0.42411618	      0.42492649	     24.93442544	     28.30796175	     -7.50116955	     17.12589017	     -1.64757285	     -7.87034894	     29.08994111	     -1.30721998	      0.50771525	     11.16016003	     16.82697737	     -7.50116955	    -29.83215608	      5.95840086	     -3.90143431	      6.27028916	    -14.91812242	     -0.13320507	     49.80980576	     90.00000001	      0.00000000	      0.00000000	     13.86744898	     -9.53264989	     25.99898343	     51.33849983	     90.00000001	      0.00000000	      0.00000000
      4.35000000	     12.76207648	      0.57001416	      2.97486422	      0.23314610	      0.88068011	     -0.14176958	    -11.40274389	      2.08850443	    -17.74300702	     24.45001757	      0.43994962	      0.42673331	     25.10551521	     28.34008245	     -7.50116490	     17.17281001	     -1.69200557	     -8.21477056	     28.90016429	     -1.21123529	      0.50440302	     11.13680537	     16.65827826	     -7.50116490	    -29.78315457	      6.09428710	     -3.84441610	      6.37317067	    -15.08469974	     -0.08761850	     49.48985394	     90.00000001	      0.00000000	      0.00000000	     13.82389276	     -9.45181480	     26.00886109	     51.32679793	     90.00000001	      0.00000000	      0.00000000
      4.36000000	     12.70456384	      0.50082005	      2.87534526	      0.23614486	      0.88009356	     -0.14224688	    -11.51051456	      2.10080688	    -17.66948158	     24.55393710	      0.39730814	      0.42854705	     25.17746559	     28.34953317	     -7.50116181	     17.25934111	     -1.66461632	     -8.41690518	     28.81260701	     -1.11961558	      0.50287486	     11.11426914	     16.55325365	     -7.50116181	    -29.74265796	      6.18587378	     -3.82843227	      6.44447403	    -15.24828150	     -0.08531497	     49.32641757	     90.00000001	      0.00000000	      0.00000000	     13.81349310	     -9.42020404	     26.00456754	     51.33027176	     90.00000001	      0.00000000	      0.00000000
      4.37000000	     12.65791846	      0.35215196	      2.44588112	      0.23931496	      0.87957061	     -0.14220490	    -11.53616125	      2.11268797	    -17.47139696	     24.82811404	      0.37146326	      0.43333234	     25.57133223	     28.49814625	     -7.50115346	     17.15996008	     -1.82145943	     -9.08250586	     28.53454682	     -1.11855502	      0.49802179	     10.99772889	     16.11139482	     -7.50115346	    -29.70553188	      6.22572026	     -3.53013407	      6.71047292	    -15.37854848	      0.09467878	     48.65929858	     90.00000001	      0.00000000	      0.00000000	     13.75910017	     -9.31758557	     26.00125422	     51.28238058	     90.00000001	      0.00000000	      0.00000000
      4.38000000	     12.61848959	      0.42879557	      1.93728740	      0.24235653	      0.87907983	     -0.14216829	    -11.52754163	      1.91072953	    -17.05874874	     25.17793978	      0.21946523	      0.43943795	     26.04283370	     28.76692406	     -7.50113894	     17.04590653	     -1.74098349	     -9.71442847	     28.36191527	     -1.03728722	      0.49500880	     10.72583085	     15.55061262	     -7.50113894	    -29.72237043	      5.97729276	     -3.27994780	      7.01463524	    -15.50866848	      0.38444772	     47.93329970	     90.00000001	      0.00000000	      0.00000000	     13.73932502	     -9.27276623	     25.92710616	     51.20216263	     90.00000001	      0.00000000	      0.00000000
      4.39000000	     12.52052515	      0.34812099	      1.83916600	      0.24550931	      0.87838648	     -0.14282059	    -11.61083355	      1.89530529	    -17.03976561	     25.26875321	      0.22742491	      0.44102294	     26.06789790	     28.76105628	     -7.50113599	     17.07556005	     -1.69036424	     -9.83719396	     28.29934405	     -0.96943809	      0.49391673	     10.69331822	     15.46272298	     -7.50113599	    -29.64606048	      6.10692060	     -3.28769723	      7.09002500	    -15.67347187	      0.36683458	     47.89513791	     90.00000001	      0.00000000	      0.00000000	     13.67291315	     -9.21174134	     25.93475070	     51.21402074	     90.00000001	      0.00000000	      0.00000000
      4.40000000	     12.47427072	      0.32531263	      1.33927620	      0.24874408	      0.87785805	     -0.14292527	    -11.59798815	      1.71608605	    -16.77576921	     25.66370984	      0.19691863	      0.44791623	     26.48646605	     29.02570106	     -7.50111771	     16.83290919	     -1.68035573	    -10.43851134	     27.97310921	     -0.93980130	      0.48822286	     10.34783697	     14.71771713	     -7.50111771	    -29.64378403	      5.99897732	     -2.98848245	      7.33053089	    -15.84391070	      0.63533803	     47.41222459	     90.00000001	      0.00000000	      0.00000000	     13.60926388	     -9.08025707	     25.84973501	     51.17560790	     90.00000001	      0.00000000	      0.00000000
